<svg xmlns="http://www.w3.org/2000/svg" viewBox="0 0 512 512">
  <circle cx="256" cy="256" r="256" fill="#F7931A"/>
  <path d="M318.7 157.1c-5.9-23.7-29.5-31.8-53.4-28.1l-10.9-43.8-26.5 6.6 10.6 42.6c-7 1.7-14.1 3.4-21.1 5.1l-10.7-42.8-26.5 6.6 10.9 43.8c-5.8 1.4-11.4 2.8-16.9 4.3l0 0.1-36.6 9.1 7.1 28.5s19.5-5.5 19.3-5.1c10.7-2.7 15.9 2.1 18.2 7.1l12.7 50.7c0.6-0.1 1.4-0.3 2.3-0.4l-2.3 0.6 17.7 71c0.4 3.1-0.3 8.3-7.8 10.2 0.4 0.3-19.3 4.8-19.3 4.8l3.9 33.3 34.5-8.6c6.4-1.6 12.8-3.1 19-4.7l11 44.1 26.5-6.6-10.9-43.9c7.3-1.7 14.3-3.4 21.2-5.1l10.9 43.7 26.5-6.6-11-44c45.4-15.4 75.6-36.2 69.8-80.6-4.7-35.8-23.7-46.6-47.5-45.4 11.9-12.2 17-28.7 9-52.6zm-3.9 115.5c6.7 26.7-41.2 38.1-56.8 42.2l-14.3-57.2c15.6-3.9 64.2-15.2 71.1 15zm-11.1-74.2c6.1 24.2-33.9 33.5-47.1 37l-13-52c13.2-3.3 53.9-12.7 60.1 15z" fill="#FFFFFF"/>
</svg>
